<svg xmlns="http://www.w3.org/2000/svg" version="1.1" xmlns:xlink="http://www.w3.org/1999/xlink" xmlns:svgjs="http://svgjs.dev/svgjs" width="100%" height="100%" viewBox="0 0 1000 600"><rect width="1000" height="600" x="0" y="0" fill="#374f2f"/><g><circle r="166.66666666666666" cx="388.66445414225257" cy="410.88670611482974" fill="#fcedda" transform="matrix(0.5630685844846195,0,0,0.5630685844846197,0,68.64259827654506)"/><path d="M361.0626518373698 338.0863010520246Q365.6756866039469 338.0863010520246 368.2113282306084 339.52214631049566Q370.74696985726996 340.9274416698502 370.74696985726996 343.5852828929774L370.74696985726996 343.5852828929774Q370.74696985726996 344.68507926116797 370.0748720767091 346.426423510803L370.0748720767091 346.426423510803Q369.4027742961482 347.9844683657396 368.2113282306084 349.17591443127935Q366.98933226595227 350.3979103959355 366.0117354942273 350.9478085800308Q365.00358882338594 351.49770676412606 364.5758902357563 351.9254053517557L364.5758902357563 351.9254053517557Q361.0626518373698 353.911148794322 358.8630591009887 356.32459082451794Q356.66346636460764 358.7685827538303 355.105421509671 363.80931610803697L355.105421509671 363.80931610803697L328.49645937928295 458.60565306623926Q327.6105123049072 461.47734358318127 327.6105123049072 464.104634907192L327.6105123049072 464.104634907192Q327.6105123049072 466.76247613031916 328.4048096819337 468.5038203799542Q329.16855715984383 470.27571452870563 330.69605211566403 472.2614579712719L330.69605211566403 472.2614579712719Q332.6817955582303 475.1025985890975 332.6817955582303 476.8744927378489L332.6817955582303 476.8744927378489Q332.6817955582303 477.30219132547865 332.25409697060064 479.07408547423006L332.25409697060064 479.07408547423006Q331.3681498962249 482.1596252849869 328.2826100854681 483.35107135052664Q325.1970702747113 484.5730673151828 319.056540552314 484.5730673151828L319.056540552314 484.5730673151828L267.3661112473581 484.5730673151828Q262.7225265816647 484.5730673151828 260.2174348541195 483.0455723593626Q257.681793227458 481.487527504426 257.681793227458 478.86023618041526L257.681793227458 478.86023618041526Q257.681793227458 477.54659051840986 258.32334110890247 475.98854566347325L258.32334110890247 475.98854566347325Q259.2092881832782 473.5751036332773 261.1950316258445 472.2614579712719Q263.18077506841075 470.94781230926657 263.6084736560404 470.7034131163353L263.6084736560404 470.7034131163353Q267.1217120544269 468.5038203799542 269.321304790808 466.2125779462239Q271.5208975271891 463.8907856133772 273.0789423821257 458.60565306623926L273.0789423821257 458.60565306623926L299.9017538063286 363.80931610803697Q300.7877008807043 360.96817549021137 300.7877008807043 358.3103342670842L300.7877008807043 358.3103342670842Q300.7877008807043 355.89689223688833 300.0239534027942 354.2471976846025Q299.2602059248841 352.59750313231666 297.9160103637623 350.3979103959355L297.9160103637623 350.3979103959355Q295.96081682031246 347.5262198789935 295.96081682031246 345.7848756293585L295.96081682031246 345.7848756293585Q295.96081682031246 345.1127778487976 296.3885154079421 343.3714335991626L296.3885154079421 343.3714335991626Q297.27446248231786 340.49974308222056 300.23780269660904 339.2777471175644Q303.2011429109002 338.0863010520246 309.3722225324139 338.0863010520246L309.3722225324139 338.0863010520246L361.0626518373698 338.0863010520246ZM428.791778178438 485.8867129771882Q410.3396391121298 485.8867129771882 395.58403783890657 479.07408547423006Q380.8589864647997 472.2614579712719 372.1522652166245 458.9417019565197Q363.47609386756574 445.6524958408839 363.47609386756574 426.71155838871323L363.47609386756574 426.71155838871323Q363.47609386756574 413.5140019704266 368.0891286341428 398.11685281575893L368.0891286341428 398.11685281575893Q378.2011452416726 365.12296177004237 398.66957764966344 350.52010999240116Q419.13801005765424 335.88670831564355 442.44758308347065 335.88670831564355L442.44758308347065 335.88670831564355Q454.9730417211964 335.88670831564355 464.65735974109646 339.6137960078448Q474.3416777609966 343.3714335991626 482.46795092596017 350.3979103959355L482.46795092596017 350.3979103959355L488.42518125365893 345.7848756293585Q494.35186168224135 341.17184086278144 498.4149982647232 339.39994671403Q502.4781348472049 337.6280525652786 507.549418100528 337.6280525652786L507.549418100528 337.6280525652786Q513.0483999414807 337.6280525652786 516.3477890460524 340.07204449459095Q519.6471781506241 342.48548652478684 519.6471781506241 347.0985212913639L519.6471781506241 347.0985212913639Q519.6471781506241 349.51196332155985 518.7612310762484 351.9254053517557L518.7612310762484 351.9254053517557L506.44962173233745 386.2634919585941Q504.4638782897712 392.1901723871765 501.71438736929485 394.6036144173724Q498.9648964488184 397.01705644756834 493.46591460786567 397.01705644756834L493.46591460786567 397.01705644756834Q487.75308347309806 397.01705644756834 484.11764547824595 392.9539198650866Q480.48220748339384 388.89078328260484 475.8691727168168 378.9926159688899L475.8691727168168 378.9926159688899Q470.58404016967893 368.66675006754525 467.28465106510725 365.3673609629736Q463.9852619605356 362.06797185840196 457.6308829443235 362.06797185840196L457.6308829443235 362.06797185840196Q448.58811280586787 362.06797185840196 440.2479903470895 373.1575852376567Q431.8773179891948 384.2777485160278 425.06469048623666 406.48752517365364L425.06469048623666 406.48752517365364Q419.35185935146905 425.184063432893 419.35185935146905 437.70952207061873L419.35185935146905 437.70952207061873Q419.35185935146905 448.7074857525243 423.5371955304164 454.1148178961278Q427.6919818102474 459.49160014061493 434.74900850613676 459.49160014061493L434.74900850613676 459.49160014061493Q445.0748744074814 459.49160014061493 451.7958522130903 454.8785653740379Q458.48628011958283 450.2655306074609 465.54330681547225 442.3531067363122L465.54330681547225 442.3531067363122Q469.94249228823446 437.49567277680393 472.6919832087108 435.2044303430736Q475.44147412918716 432.8826380102269 478.527013939944 432.8826380102269L478.527013939944 432.8826380102269Q482.46795092596017 432.8826380102269 486.8671363987224 436.85412489535946Q491.2663218714846 440.7950618813756 491.05247257766973 444.76654876650815L491.05247257766973 444.76654876650815Q491.2663218714846 449.5934328269 483.23169840387027 459.7054494344298Q475.22762483537235 469.84801594107597 461.0219217462444 477.8520895095739Q446.84676855623286 485.8867129771882 428.791778178438 485.8867129771882L428.791778178438 485.8867129771882Z " fill="#374f2f" transform="matrix(0.5630685844846195,0,0,0.5630685844846197,0,68.64259827654506)"/><path d="M686.6975125732354 371.1482347584972Q695.9616969286253 371.1482347584972 700.2613422993087 374.6721709128202Q704.5609876699921 378.17394394667576 704.5609876699921 384.24663895475436L704.5609876699921 384.24663895475436Q704.5609876699921 387.903553831882 703.4528316466201 391.2501850224655L703.4528316466201 391.2501850224655L688.7808458971747 438.9673833888642Q688.293257246891 440.8955748695315 688.293257246891 442.3140145794477L688.293257246891 442.3140145794477Q688.293257246891 444.3973479033871 689.0911295837188 445.59415640862886Q689.8890019205467 446.7909649138706 691.3296047509303 447.8991209372426L691.3296047509303 447.8991209372426Q692.4377607743023 449.02944008108204 692.9253494245861 449.73865993604016Q693.3907749544023 450.47004291146567 693.0804912678582 451.5781989348377L693.0804912678582 451.5781989348377Q692.2826189310302 453.6615322587771 689.8890019205467 454.61454643887697Q687.4953849100632 455.5675606189769 682.553009045824 455.5675606189769L682.553009045824 455.5675606189769L646.1611652382871 455.5675606189769Q642.016661710876 455.5675606189769 640.110633350676 454.21561027046306Q638.1824418700087 452.86365992194925 638.8251723635644 450.62518475473775L638.8251723635644 450.62518475473775Q639.4679028571202 448.69699327407045 642.171803554148 447.27855356415427L642.171803554148 447.27855356415427Q644.5654205646315 445.9930925770428 646.1611652382871 444.242206060115Q647.7569099119429 442.4913195431872 648.8872290557824 438.65709970232007L648.8872290557824 438.65709970232007L662.7613424683999 392.535646009577Q663.2489311186836 391.0950431791934 663.2489311186836 390.14202899909344L663.2489311186836 390.14202899909344Q663.2489311186836 388.39114248216566 662.4510587818557 387.349475820196Q661.6531864450279 386.3078091582263 660.0574417713722 385.1996531348543L660.0574417713722 385.1996531348543Q658.4616970977165 383.91419214774277 657.8189666041608 382.96117796764287Q657.176236110605 382.0081637875429 657.6638247608887 380.4124191138872L657.6638247608887 380.4124191138872Q658.6168389409886 376.73334111629214 667.703718332639 373.9407879373947Q676.812760844757 371.1482347584972 686.6975125732354 371.1482347584972L686.6975125732354 371.1482347584972ZM697.3801366385414 335.88671009479987Q703.6079734898922 335.88671009479987 707.7524770173035 339.9647242608089Q711.9191436651822 344.02057530635045 711.9191436651822 349.938128471157L711.9191436651822 349.938128471157Q711.9191436651822 354.0826319985683 709.7471578593731 358.0719936827075Q707.5973351740314 362.0613553668468 703.6966259717619 364.52146173873257Q699.773753649025 367.0037312310859 694.986519628058 367.0037312310859L694.986519628058 367.0037312310859Q688.9359877404468 367.0037312310859 684.8579735744378 362.9257170650769Q680.8021225288962 358.8698660195354 680.6248175651567 352.7971710114567L680.6248175651567 352.7971710114567Q680.6248175651567 348.8078093273175 682.708150889096 344.90710012504803Q684.7914842130355 340.9842278023111 688.6035409334352 338.43546894855547Q692.4377607743023 335.88671009479987 697.3801366385414 335.88671009479987L697.3801366385414 335.88671009479987ZM781.9546043422932 371.1482347584972Q790.9085050111391 371.1482347584972 796.2498170437922 376.57819927302006Q801.5911290764453 382.0081637875429 801.5911290764453 389.98688715582136L801.5911290764453 389.98688715582136Q801.5911290764453 393.0232346598607 800.9483985828896 395.5719935136163L800.9483985828896 395.5719935136163Q799.3526539092338 402.1101140515112 794.8978666952784 405.61188708536673Q790.4209163608554 409.1358232396897 784.1930795095047 409.1358232396897L784.1930795095047 409.1358232396897Q778.1425476218935 409.1358232396897 775.0175476359844 406.2546175789225Q771.9147107705429 403.39557503862267 769.5210937600593 398.6083410176556L769.5210937600593 398.6083410176556Q768.2356327729477 395.88227720016044 767.1274767495757 394.6189793335164Q765.9971576057363 393.33351834640484 764.5787178958202 393.33351834640484L764.5787178958202 393.33351834640484Q762.9829732221644 393.33351834640484 761.7861647169227 394.6189793335164Q760.589356211681 395.88227720016044 759.6141789111135 399.07376654747185L759.6141789111135 399.07376654747185L747.3358101721517 438.9673833888642Q747.0255264856075 439.76525572569204 747.0255264856075 441.3610003993478L747.0255264856075 441.3610003993478Q747.0255264856075 443.4443337232871 748.2223349908493 444.796284071801Q749.4191434960911 446.14823442031485 751.480313699563 447.43369540742634L751.480313699563 447.43369540742634Q753.4085051802303 448.69699327407045 754.0290725533187 449.49486561089833Q754.6718030468744 450.29273794772615 754.5166612036023 451.5781989348377L754.5166612036023 451.5781989348377Q754.2063775170582 453.6615322587771 752.2116966749885 454.61454643887697Q750.217015832919 455.5675606189769 745.4297818119518 455.5675606189769L745.4297818119518 455.5675606189769L704.5609876699921 455.5675606189769Q700.4164841425808 455.5675606189769 698.5769451437833 454.21561027046306Q696.7595692654531 452.86365992194925 697.2249947952694 450.62518475473775L697.2249947952694 450.62518475473775Q697.8677252888251 448.69699327407045 700.571625985853 447.27855356415427L700.571625985853 447.27855356415427Q702.9652429963364 445.9930925770428 704.5609876699921 444.242206060115Q706.1567323436478 442.4913195431872 707.2870514874872 438.65709970232007L707.2870514874872 438.65709970232007L721.4936117071164 392.535646009577Q721.8038953936606 391.73777367274914 721.8038953936606 390.2971708423656L721.8038953936606 390.2971708423656Q721.8038953936606 388.5462843254378 721.0946755387025 387.59327014533784Q720.3632925632769 386.64025596523794 718.7675478896213 385.1996531348543L718.7675478896213 385.1996531348543Q717.1718032159656 383.91419214774277 716.5290727224099 382.96117796764287Q715.9085053493216 382.0081637875429 716.3739308791378 380.4124191138872L716.3739308791378 380.4124191138872Q717.3269450592377 376.73334111629214 726.4359875713556 373.9407879373947Q735.5228669630061 371.1482347584972 745.4297818119518 371.1482347584972L745.4297818119518 371.1482347584972Q751.9679023498467 371.1482347584972 756.26754772053 374.0959297806668Q760.589356211681 377.06578792330373 761.852654078325 382.47358931735914L761.852654078325 382.47358931735914Q769.5210937600593 371.1482347584972 781.9546043422932 371.1482347584972L781.9546043422932 371.1482347584972ZM857.7524763409388 371.1482347584972Q879.4723343990302 371.1482347584972 889.7560222959224 379.92483046360354Q900.0397101928146 388.7014261687098 900.0397101928146 402.907986388339L900.0397101928146 402.907986388339Q900.0397101928146 407.6952204093061 898.7764123261705 413.5906104536452L898.7764123261705 413.5906104536452Q895.7400648221313 426.68901464990233 887.4510577673086 436.5072770169783Q879.1398875920185 446.3033762635869 867.1053131781986 451.66685141670746Q855.048575643911 457.00816344936055 840.9971572675539 457.00816344936055L840.9971572675539 457.00816344936055Q818.8340368001137 457.00816344936055 808.21790209621 448.14291526238446Q797.6017673923061 439.2998301958758 797.6017673923061 424.60568132596296L797.6017673923061 424.60568132596296Q797.6017673923061 419.66330546172384 798.8872283794176 413.5906104536452L798.8872283794176 413.5906104536452Q801.9014127629895 401.1570998714113 810.4563772634214 391.4939793476073Q818.9891786433858 381.85302194427084 831.3561998642175 376.4895467911503Q843.7232210850491 371.1482347584972 857.7524763409388 371.1482347584972L857.7524763409388 371.1482347584972ZM857.2870508111224 385.3547949781264Q853.940419620539 385.3547949781264 850.1726891410742 391.33883750433523Q846.4271217820768 397.32288003054407 841.3296040745655 413.9230572606568L841.3296040745655 413.9230572606568Q836.2099232465869 430.5232344907695 836.2099232465869 437.21649687193644L836.2099232465869 437.21649687193644Q836.2099232465869 440.718269905792 837.3402423904264 441.9150784110338Q838.4483984137984 443.1118869162755 840.3765898944656 443.1118869162755L840.3765898944656 443.1118869162755Q843.7232210850491 443.4443337232871 847.3136466007744 437.3716387152085Q850.9040721164997 431.32110682759736 856.3340366310225 413.7679154173847L856.3340366310225 413.7679154173847Q861.2764124952618 398.275894210644 861.2764124952618 391.2501850224655L861.2764124952618 391.2501850224655Q861.2764124952618 387.903553831882 860.2347458332921 386.64025596523794Q859.1930791713223 385.3547949781264 857.2870508111224 385.3547949781264L857.2870508111224 385.3547949781264ZM1009.1930784949576 402.1101140515112L999.4634686097514 433.53741887434137Q999.1531849232072 434.1801493678971 999.1531849232072 435.46561035500866L999.1531849232072 435.46561035500866Q999.1531849232072 436.57376637838064 999.7072629348932 437.21649687193644Q1000.2613409465791 437.8592273654922 1001.2143551266792 437.8592273654922L1001.2143551266792 437.8592273654922Q1003.1425466073464 437.8592273654922 1004.4944969558603 436.17483020996673Q1005.846447304374 434.51259617490877 1006.3340359546578 434.51259617490877L1006.3340359546578 434.51259617490877Q1007.1319082914857 434.51259617490877 1007.597333821302 435.532099716411Q1008.0849224715855 436.57376637838064 1008.0849224715855 438.01436920876426L1008.0849224715855 438.01436920876426Q1008.2400643148577 442.6464613864593 1005.0485749675463 447.03475923901243Q1001.8570856202349 451.42305709156557 995.7179012507539 454.21561027046306Q989.578716881273 457.00816344936055 980.9572630194388 457.00816344936055L980.9572630194388 457.00816344936055Q970.4297807974048 457.00816344936055 964.201943946054 452.1322769465237Q957.9741070947033 447.27855356415427 957.8189652514312 439.1225252321363L957.8189652514312 439.1225252321363Q957.8189652514312 433.2271351877972 960.6780077917309 425.8911423130745L960.6780077917309 425.8911423130745L969.4546034968374 402.907986388339Q970.2524758336651 400.8246530643996 970.2524758336651 399.5613551977555L970.2524758336651 399.5613551977555Q970.2524758336651 397.47802187381615 968.9005254851513 396.2812133685744Q967.5485751366375 395.0844048633326 965.6425467764376 395.0844048633326L965.6425467764376 395.0844048633326Q962.1186106221147 395.0844048633326 958.9271212748032 398.3645466925138Q955.7356319274919 401.6225254012275 954.2950290971082 406.40975942219455L954.2950290971082 406.40975942219455L944.4102773686299 438.9673833888642Q943.7675468750741 440.718269905792 943.7675468750741 442.3140145794477L943.7675468750741 442.3140145794477Q943.7675468750741 444.242206060115 944.5654192119019 445.4390145653568Q945.3632915487299 446.6358230705985 946.8038943791136 447.8991209372426L946.8038943791136 447.8991209372426Q947.9120504024855 448.87429823780997 948.3996390527692 449.67217057463785Q948.8872277030529 450.47004291146567 948.5547808960413 451.5781989348377L948.5547808960413 451.5781989348377Q947.9120504024855 453.6615322587771 945.5184333920018 454.61454643887697Q943.1248163815184 455.5675606189769 938.027298674007 455.5675606189769L938.027298674007 455.5675606189769L901.6354548664704 455.5675606189769Q897.490951339059 455.5675606189769 895.6514123402615 454.21561027046306Q893.8340364619314 452.86365992194925 894.2994619917476 450.62518475473775L894.2994619917476 450.62518475473775Q894.9421924853034 448.69699327407045 897.6460931823311 447.27855356415427L897.6460931823311 447.27855356415427Q900.0397101928146 445.9930925770428 901.6354548664704 444.242206060115Q903.231199540126 442.4913195431872 904.3615186839655 438.65709970232007L904.3615186839655 438.65709970232007L918.5680789035947 392.535646009577Q918.8783625901389 391.73777367274914 918.8783625901389 390.2971708423656L918.8783625901389 390.2971708423656Q918.8783625901389 388.5462843254378 918.1691427351807 387.59327014533784Q917.4377597597552 386.64025596523794 915.8420150860994 385.1996531348543L915.8420150860994 385.1996531348543Q914.2462704124438 383.91419214774277 913.603539918888 382.96117796764287Q912.9829725457997 382.0081637875429 913.448398075616 380.4124191138872L913.448398075616 380.4124191138872Q914.4014122557159 376.73334111629214 923.5104547678337 373.9407879373947Q932.5973341594843 371.1482347584972 942.5042490084301 371.1482347584972L942.5042490084301 371.1482347584972Q950.4829723767085 371.1482347584972 955.092901433936 375.5365326110504Q959.724993611631 379.92483046360354 959.2595680818148 387.7484119886099L959.2595680818148 387.7484119886099Q965.7976886197097 378.32908578994784 973.1336814944324 374.7386602742225Q980.4696743691551 371.1482347584972 989.0911282309893 371.1482347584972L989.0911282309893 371.1482347584972Q998.8207381161957 371.1482347584972 1004.8047806424045 377.06578792330373Q1010.7888231686132 382.96117796764287 1010.7888231686132 392.3805041663049L1010.7888231686132 392.3805041663049Q1010.7888231686132 397.32288003054407 1009.1930784949576 402.1101140515112L1009.1930784949576 402.1101140515112ZM1070.4741065874296 456.5205747990769Q1057.0654187046284 456.5205747990769 1046.3827946393221 451.5781989348377Q1035.6780074535486 446.6358230705985 1029.3836812407958 436.9727025467946Q1023.0893550280426 427.33174514345814 1023.0893550280426 413.5906104536452L1023.0893550280426 413.5906104536452Q1023.0893550280426 404.01614241171103 1026.435986218626 392.8459296961212L1026.435986218626 392.8459296961212Q1033.7719790933488 368.90975959128576 1048.6212698065337 358.31578800784933Q1063.448397399251 347.6996533039455 1080.358858315908 347.6996533039455L1080.358858315908 347.6996533039455Q1089.467900828026 347.6996533039455 1096.4936100162045 350.4035540009732Q1103.4971560839158 353.1296178184683 1109.4147092487221 358.2271355259796L1109.4147092487221 358.2271355259796L1113.7143546194056 354.8805043353961Q1118.0361631105566 351.5338731448127 1120.9838581327258 350.24841215770107Q1123.9315531548955 348.9629511705896 1127.6106311524904 348.9629511705896L1127.6106311524904 348.9629511705896Q1131.5999928366298 348.9629511705896 1133.9936098471135 350.7360008079848Q1136.387226857597 352.4868873249126 1136.387226857597 355.83351851549605L1136.387226857597 355.83351851549605Q1136.387226857597 357.58440503242383 1135.744496364041 359.3352915493516L1135.744496364041 359.3352915493516L1126.8127588156626 384.24663895475436Q1125.3721559852793 388.5462843254378 1123.3774751432093 390.2971708423656Q1121.3827943011397 392.0480573592933 1117.3934326170006 392.0480573592933L1117.3934326170006 392.0480573592933Q1113.2489290895892 392.0480573592933 1110.611517753964 389.1003623371238Q1107.9741064183386 386.1526673149542 1104.627475227755 378.9718162835036L1104.627475227755 378.9718162835036Q1100.793255386888 371.4806815655088 1098.3996383764043 369.0870645550253Q1096.0060213659208 366.69344754454175 1091.3739291882257 366.69344754454175L1091.3739291882257 366.69344754454175Q1084.8358086503308 366.69344754454175 1078.7631136422524 374.7386602742225Q1072.7125817546412 382.8060361243708 1067.770205890402 398.9186247041998L1067.770205890402 398.9186247041998Q1063.6035392425233 412.4824544302732 1063.6035392425233 421.56933382192364L1063.6035392425233 421.56933382192364Q1063.6035392425233 429.54805719020214 1066.6398867465628 433.47092951293905Q1069.6762342506017 437.3716387152085 1074.7737519581133 437.3716387152085L1074.7737519581133 437.3716387152085Q1082.2870497965755 437.3716387152085 1087.1407731789448 434.02500752462504Q1092.0166596817817 430.67837633404156 1097.1141773892928 424.93812813297455L1097.1141773892928 424.93812813297455Q1100.305666736604 421.41419197865156 1102.300347578674 419.7519579435936Q1104.2950284207436 418.0675607880681 1106.5335035879548 418.0675607880681L1106.5335035879548 418.0675607880681Q1109.4147092487221 418.0675607880681 1112.6061985960337 420.94876644883533Q1115.797687943345 423.80780898913514 1115.6425461000727 426.68901464990233L1115.6425461000727 426.68901464990233Q1115.797687943345 430.1907876837579 1109.9687872604081 437.5267805584806Q1104.1398865774713 444.88493655367074 1093.8561986805792 450.69167411614006Q1083.5503476632193 456.5205747990769 1070.4741065874296 456.5205747990769L1070.4741065874296 456.5205747990769ZM1209.9466236890307 371.1482347584972Q1216.9723328772095 371.1482347584972 1221.183325766023 376.8219935981619Q1225.4164817753042 382.47358931735914 1225.4164817753042 392.22536232303287L1225.4164817753042 392.22536232303287Q1225.4164817753042 400.66951122112755 1222.380134271265 410.3991211063338L1222.380134271265 410.3991211063338Q1216.4847442269256 430.0356458404858 1203.4749925125384 447.43369540742634Q1190.465240798151 464.8317449743669 1173.643432363364 475.35922719640104Q1156.7994608081094 485.88670941843515 1140.0441417347247 485.88670941843515L1140.0441417347247 485.88670941843515Q1131.7551346799019 485.88670941843515 1125.7710921536932 483.0055037576679Q1119.787049627484 480.1464612173681 1116.662049641575 475.35922719640104Q1113.5592127761333 470.57199317543393 1113.5592127761333 465.1420286609111L1113.5592127761333 465.1420286609111Q1113.5592127761333 462.74841165042756 1114.3570851129612 459.8672059896603L1114.3570851129612 459.8672059896603Q1115.797687943345 455.41241877570485 1119.1443191339285 453.0188017652213Q1122.4909503245117 450.62518475473775 1127.1230425022068 450.62518475473775L1127.1230425022068 450.62518475473775Q1134.4590353769295 450.62518475473775 1139.1797800364943 455.6562131008467Q1143.8783615755915 460.6650783264882 1145.1638225627032 469.44167403159446L1145.1638225627032 469.44167403159446Q1155.3588579777256 468.97624850177823 1163.9803118395598 460.6650783264882L1163.9803118395598 460.6650783264882Q1155.8464466280093 459.246638616572 1151.94573742574 455.168624450563Q1148.022865103003 451.090610284554 1146.5822622726193 442.4913195431872L1146.5822622726193 442.4913195431872L1140.1992835779965 403.39557503862267Q1139.7338580481805 400.3592275345834 1138.8473332294825 399.1624190293416Q1137.9829715312526 397.9656105240999 1136.5423687008688 397.9656105240999L1136.5423687008688 397.9656105240999Q1135.4120495570296 397.9656105240999 1133.9049573652437 399.07376654747185Q1132.3978651734576 400.2040856913113 1131.7551346799019 400.2040856913113L1131.7551346799019 400.2040856913113Q1130.4696736927904 400.2040856913113 1130.4696736927904 397.47802187381615L1130.4696736927904 397.47802187381615Q1130.4696736927904 395.2395467066047 1131.2675460296182 392.6907878528491L1131.2675460296182 392.6907878528491Q1134.1487516903853 383.6039084611986 1141.9723332153917 377.2874191279781Q1149.7737516199309 370.99309291522513 1160.1460919986928 370.99309291522513L1160.1460919986928 370.99309291522513Q1170.3632905341829 370.99309291522513 1175.2391770370195 377.06578792330373Q1180.092900419389 383.11631981091494 1181.5335032497726 395.72713535688837L1181.5335032497726 395.72713535688837L1186.3207372707398 430.8335181773137Q1186.8083259210234 434.8228798614529 1189.201942931507 434.8228798614529L1189.201942931507 434.8228798614529Q1192.0609854718068 434.8228798614529 1195.8952053126739 429.6367096720719Q1199.729425153541 424.4505394826909 1203.408503151136 414.87607144075673L1203.408503151136 414.87607144075673Q1198.621269130169 410.5764260700733 1196.050347155946 404.9913197122784Q1193.5015883021902 399.40621335448344 1193.5015883021902 393.0232346598607L1193.5015883021902 393.0232346598607Q1193.5015883021902 388.05869567515407 1194.7870492893016 384.06933399101484L1194.7870492893016 384.06933399101484Q1196.6930776495017 377.6863552963921 1200.7710918155105 374.4283765876784Q1204.8269428610522 371.1482347584972 1209.9466236890307 371.1482347584972L1209.9466236890307 371.1482347584972ZM1282.2205595333535 370.35036242166933Q1291.9723325390269 370.35036242166933 1299.30832541375 373.1429156005668Q1306.6443182884723 375.9354687794643 1310.7223324544816 380.8113552823011Q1314.7781835000233 385.66507866467055 1314.7781835000233 391.58263182947707L1314.7781835000233 391.58263182947707Q1314.7781835000233 397.9656105240999 1310.3898856474698 402.1101140515112Q1306.0015877949168 406.2546175789225 1298.5104530769217 406.2546175789225L1298.5104530769217 406.2546175789225Q1290.8420133951877 406.2546175789225 1286.5423680245044 402.353908376653Q1282.2205595333535 398.4310360539161 1282.2205595333535 391.73777367274914L1282.2205595333535 391.73777367274914Q1282.2205595333535 388.5462843254378 1283.1957368339208 385.04451129158224L1283.1957368339208 385.04451129158224Q1276.4803113322864 386.79539780851 1271.2941411429056 391.981567997891Q1266.1079709535243 397.167738187272 1264.3570844365968 405.61188708536673L1264.3570844365968 405.61188708536673Q1263.4040702564967 410.3991211063338 1263.4040702564967 414.23334094720093L1263.4040702564967 414.23334094720093Q1263.4040702564967 422.8547948090352 1268.1913042774636 427.33174514345814Q1272.978538298431 431.7865323574136 1281.9102758468093 431.7865323574136L1281.9102758468093 431.7865323574136Q1287.0077935543204 431.7865323574136 1290.6868715519154 430.74486569544393Q1294.3659495495108 429.72536215394166 1298.1780062699104 427.95231251654644L1298.1780062699104 427.95231251654644Q1301.3694956172217 426.35656784289074 1302.8100984476055 426.35656784289074L1302.8100984476055 426.35656784289074Q1303.7631126277051 426.35656784289074 1304.095559434717 426.75550401130465Q1304.4058431212611 427.1544401797186 1304.4058431212611 428.4399011668301L1304.4058431212611 428.4399011668301Q1304.560984964533 434.3352912111692 1299.5521197388916 440.80692238766176Q1294.5210913927826 447.27855356415427 1285.6558432058068 451.66685141670746Q1276.8127581392978 456.0551492692606 1265.7976872669801 456.0551492692606L1265.7976872669801 456.0551492692606Q1254.2950277443788 456.0551492692606 1245.4519426778702 451.82199325997954Q1236.586694490894 447.5888372506984 1231.7329711085245 439.6987663642897Q1226.8570846056878 431.7865323574136 1226.8570846056878 421.2590501353795L1226.8570846056878 421.2590501353795Q1226.8570846056878 416.31667427114036 1228.1425455927993 410.2439792630617L1228.1425455927993 410.2439792630617Q1232.4421909634825 390.45231268563765 1247.2028291947977 380.4124191138872Q1261.9634674261129 370.35036242166933 1282.2205595333535 370.35036242166933L1282.2205595333535 370.35036242166933ZM1361.6975095295938 337.63759661172764Q1370.961693884984 337.63759661172764 1375.349991737537 341.16153276605064Q1379.73828959009 344.6633057999062 1379.73828959009 350.7360008079848L1379.73828959009 350.7360008079848Q1379.73828959009 354.23777384184035 1378.6079704462509 357.58440503242383L1378.6079704462509 357.58440503242383L1353.5636443180433 438.9673833888642Q1353.0760556677596 440.8955748695315 1353.0760556677596 442.3140145794477L1353.0760556677596 442.3140145794477Q1353.0760556677596 444.3973479033871 1353.8739280045875 445.59415640862886Q1354.6718003414153 446.7909649138706 1356.112403171799 447.8991209372426L1356.112403171799 447.8991209372426Q1357.220559195171 449.02944008108204 1357.7081478454547 449.73865993604016Q1358.1957364957384 450.47004291146567 1357.863289688727 451.5781989348377L1357.863289688727 451.5781989348377Q1357.0654173518988 453.6615322587771 1354.6718003414153 454.61454643887697Q1352.2781833309318 455.5675606189769 1347.3358074666926 455.5675606189769L1347.3358074666926 455.5675606189769L1310.943963659156 455.5675606189769Q1306.7994601317446 455.5675606189769 1304.8934317715448 454.21561027046306Q1302.9652402908773 452.86365992194925 1303.6079707844333 450.62518475473775L1303.6079707844333 450.62518475473775Q1304.2507012779888 448.69699327407045 1306.9546019750169 447.27855356415427L1306.9546019750169 447.27855356415427Q1309.3482189855004 445.9930925770428 1310.943963659156 444.242206060115Q1312.5397083328116 442.4913195431872 1313.6700274766513 438.65709970232007L1313.6700274766513 438.65709970232007L1337.9164812680306 359.02500786280746Q1338.4040699183142 357.58440503242383 1338.4040699183142 356.6313908523239L1338.4040699183142 356.6313908523239Q1338.4040699183142 354.8805043353961 1337.5175450996167 353.7501851915567Q1336.6531834013867 352.64202916818465 1335.212580571003 351.5338731448127L1335.212580571003 351.5338731448127Q1333.6168358973473 350.24841215770107 1332.8854529219216 349.29539797760117Q1332.1762330669635 348.34238379750127 1332.6638217172472 346.74663912384557L1332.6638217172472 346.74663912384557Q1333.6168358973473 343.0675611262505 1342.7037152889975 340.3636604292228Q1351.8127578011158 337.63759661172764 1361.6975095295938 337.63759661172764L1361.6975095295938 337.63759661172764ZM1423.2888213086103 370.35036242166933Q1443.5680765363181 370.35036242166933 1452.6549559279683 376.8219935981619Q1461.741835319619 383.271461654187 1461.741835319619 393.33351834640484L1461.741835319619 393.33351834640484Q1461.741835319619 396.36986585044417 1461.1212679465307 398.9186247041998L1461.1212679465307 398.9186247041998Q1458.7276509360472 409.4461069262339 1447.7790694251316 413.9895466220591Q1436.8526510346837 418.5551494383518 1422.025523441966 418.5551494383518L1422.025523441966 418.5551494383518Q1414.5122256035038 418.5551494383518 1407.9741050656094 417.5799721377844L1407.9741050656094 417.5799721377844Q1407.818963222337 425.8911423130745 1412.4510554000321 429.23777350365793Q1417.0609844572596 432.5844046942414 1425.3721546325496 432.5844046942414L1425.3721546325496 432.5844046942414Q1429.2063744734169 432.5844046942414 1432.7081475072723 431.7200429960113Q1436.2099205411278 430.8335181773137 1441.6398850556507 429.08263166038586L1441.6398850556507 429.08263166038586Q1446.1168353900734 427.4868869867302 1447.712580063729 427.4868869867302L1447.712580063729 427.4868869867302Q1449.463466580657 427.4868869867302 1449.463466580657 429.54805719020214L1449.463466580657 429.54805719020214Q1449.6186084239293 435.13316354799707 1445.3189630532456 441.2945110379454Q1440.9971545620947 447.43369540742634 1432.5530056640005 451.7333407781098Q1424.0866936454381 456.0551492692606 1412.1186085930203 456.0551492692606L1412.1186085930203 456.0551492692606Q1394.4102753395355 456.0551492692606 1383.0849207806737 447.10124860041475Q1371.7595662218118 438.1695110520364 1371.7595662218118 421.1039082921074L1371.7595662218118 421.1039082921074Q1371.7595662218118 416.31667427114036 1373.0228640884557 409.93369557651755L1373.0228640884557 409.93369557651755Q1377.0122257725952 390.2971708423656 1390.5095661372661 380.32376663201745Q1403.9847433814698 370.35036242166933 1423.2888213086103 370.35036242166933L1423.2888213086103 370.35036242166933ZM1409.0822610889813 408.00550409585026Q1409.7249915825369 408.18280905958983 1410.855310726376 408.18280905958983L1410.855310726376 408.18280905958983Q1417.5485731075432 408.18280905958983 1421.0503461413987 401.9549722082391Q1424.5742822957218 395.72713535688837 1424.4191404524495 388.05869567515407L1424.4191404524495 388.05869567515407Q1424.24183548871 383.6039084611986 1421.8482184782265 383.6039084611986L1421.8482184782265 383.6039084611986Q1420.097331961299 383.6039084611986 1417.703714950815 386.39646164009605Q1415.3100979403316 389.18901481899354 1413.005133411718 394.77412117678847Q1410.6780057626365 400.3592275345834 1409.0822610889813 408.00550409585026L1409.0822610889813 408.00550409585026ZM1511.0547783596735 369.7076319281136Q1524.3083243992028 369.7076319281136 1533.9492818025392 372.10124893859717Q1543.6124023263433 374.4948659490807 1548.7985725157241 378.8166744402315Q1553.984742705105 383.11631981091494 1553.984742705105 388.5462843254378L1553.984742705105 388.5462843254378Q1553.984742705105 394.1313906832327 1549.596444852552 397.6331637170883Q1545.208146999999 401.1570998714113 1537.3845654749925 401.1570998714113L1537.3845654749925 401.1570998714113Q1529.4058421067139 401.1570998714113 1523.9093882307889 397.167738187272Q1518.3907712343962 393.17837650313277 1518.3907712343962 387.10568149505417L1518.3907712343962 387.10568149505417Q1518.3907712343962 385.04451129158224 1519.0335017279517 383.11631981091494L1519.0335017279517 383.11631981091494Q1516.1744591876522 382.31844747408707 1513.9359840204406 382.31844747408707L1513.9359840204406 382.31844747408707Q1509.9466223363015 382.31844747408707 1507.309211000676 384.24663895475436Q1504.671799665051 386.1526673149542 1504.8269415083228 389.65444034880977L1504.8269415083228 389.65444034880977Q1504.8269415083228 393.8211069966885 1508.9936081562014 396.6801495369883Q1513.1381116836128 399.5613551977555 1522.3801329185353 403.86100056843895L1522.3801329185353 403.86100056843895Q1530.358856286814 407.38493672276195 1535.5450264761948 410.33263174493146Q1540.7311966655757 413.28032676710103 1544.3216221813013 417.7572771015239Q1547.9120476970265 422.21206431547944 1547.9120476970265 428.28475932355803L1547.9120476970265 428.28475932355803Q1547.9120476970265 429.54805719020214 1547.2914803239382 433.07199334452514L1547.2914803239382 433.07199334452514Q1544.7205583497152 443.75461740983127 1533.0849201043088 449.982454261182Q1521.4271187384356 456.2102911125327 1502.4333244978393 456.2102911125327L1502.4333244978393 456.2102911125327Q1481.0680763672267 456.2102911125327 1468.523750182656 450.47004291146567Q1456.001587118552 444.7076315899312 1456.001587118552 434.66773801818084L1456.001587118552 434.66773801818084Q1456.001587118552 427.79717067327437 1460.1460906459633 424.2953976394188Q1464.312757293842 420.7714614850958 1471.161161518281 420.7714614850958L1471.161161518281 420.7714614850958Q1479.1398848865597 420.7714614850958 1484.8136437262242 425.73600046980243Q1490.4652394454215 430.67837633404156 1490.4652394454215 438.3246528953085L1490.4652394454215 438.3246528953085Q1490.4652394454215 440.4079862192478 1489.9998139156055 442.6464613864593L1489.9998139156055 442.6464613864593Q1493.8340337564723 443.5994755665592 1497.3358067903278 443.5994755665592L1497.3358067903278 443.5994755665592Q1501.4803103177392 443.5994755665592 1504.2063741352345 441.3610003993478Q1506.910274832262 439.1225252321363 1506.910274832262 435.13316354799707L1506.910274832262 435.13316354799707Q1506.7551329889902 431.47624867086944 1503.2311968346671 428.838837335244Q1499.7294238008117 426.20142599961866 1492.0609841190771 422.54451112249103L1492.0609841190771 422.54451112249103Q1484.8801330876267 419.1757168114401 1480.2702040303989 416.2280217892706Q1475.6381118527042 413.28032676710103 1472.3579700235227 408.80337643267814Q1469.0999913148094 404.3485892187226 1469.0999913148094 398.275894210644L1469.0999913148094 398.275894210644Q1469.0999913148094 385.1996531348543 1480.0264097052573 377.46472409171764Q1490.9528280957052 369.7076319281136 1511.0547783596735 369.7076319281136L1511.0547783596735 369.7076319281136Z " fill="#fcedda" transform="matrix(0.5630685844846195,0,0,0.5630685844846197,0,68.64259827654506)"/></g></svg>